<svg class="img-fluid safari" id="outputsvg" xmlns="http://www.w3.org/2000/svg" style="transform: matrix(0.85683, 0, 0, 0.85683, 0, 0); transform-origin: 50% 50%; cursor: move; max-height: 428.415px; position: absolute; left: 55.792511px; top: 55.792511px; width: 428.415px; max-width: 428.415px; height: 428.415px;" width="428.41499999999996" height="428.41499999999996" viewBox="0 0 10240 10240"><g id="l5wQOTjXpZymEByqonES447" fill="rgb(1,130,63)" style="transform: none;"><g style="transform: none;"><path id="pVXgRuXDc" d="M0 5120 l0 -5120 5120 0 5120 0 0 5120 0 5120 -5120 0 -5120 0 0 -5120z m6650 3997 c63 -33 176 -93 250 -135 74 -41 151 -82 170 -91 19 -9 46 -24 60 -33 26 -17 143 -82 170 -95 8 -4 43 -24 78 -45 34 -21 65 -38 68 -38 12 0 170 -109 198 -136 37 -37 66 -99 66 -145 0 -48 -57 -160 -114 -225 -25 -29 -71 -65 -108 -84 -60 -33 -67 -34 -158 -32 -65 2 -99 7 -110 17 -9 8 -48 17 -88 21 -66 6 -72 5 -72 -12 0 -22 -92 -252 -248 -619 -63 -148 -150 -355 -194 -460 -105 -250 -138 -311 -201 -372 -64 -63 -290 -241 -589 -466 -215 -161 -228 -173 -228 -203 0 -18 4 -35 10 -39 5 -3 7 -33 3 -71 -5 -57 -3 -67 15 -87 27 -29 38 -59 46 -132 4 -33 21 -152 37 -265 33 -230 37 -239 115 -240 37 0 44 4 90 60 97 119 192 169 298 156 50 -6 132 -41 191 -82 17 -11 65 -39 108 -62 93 -50 151 -57 161 -19 12 50 76 107 170 152 50 24 112 49 138 55 44 11 50 11 93 -14 62 -37 84 -75 150 -256 61 -166 68 -180 95 -180 48 0 157 -93 179 -152 13 -34 17 -42 51 -93 11 -16 20 -39 20 -50 0 -11 13 -40 30 -64 19 -29 31 -64 36 -100 4 -30 15 -73 25 -96 35 -76 14 -168 -52 -232 -27 -26 -39 -47 -39 -66 0 -43 162 -486 183 -499 29 -19 83 -4 218 58 283 130 275 127 310 107 43 -26 73 -75 141 -230 121 -278 268 -644 279 -692 22 -106 -32 -232 -121 -278 -25 -13 -270 -125 -545 -249 -275 -124 -554 -250 -620 -281 -154 -71 -171 -74 -209 -34 -17 17 -35 31 -41 31 -7 0 -32 18 -57 39 -49 44 -53 51 -176 351 -189 459 -234 580 -228 606 13 52 66 91 201 148 72 30 180 77 240 105 107 49 110 51 113 85 2 25 -24 103 -94 283 -54 136 -104 253 -112 260 -8 6 -50 15 -94 19 -75 6 -84 10 -132 48 -50 41 -98 113 -114 171 -7 26 -26 39 -152 103 -103 51 -155 72 -182 72 -21 0 -38 -4 -38 -8 0 -11 -113 -200 -273 -457 -111 -177 -145 -224 -219 -297 -105 -105 -110 -123 -47 -183 23 -22 54 -64 71 -92 29 -52 31 -53 76 -53 25 0 82 12 127 27 53 17 91 24 108 19 31 -7 85 -59 107 -101 8 -16 32 -46 53 -67 20 -21 37 -44 37 -52 0 -7 7 -19 15 -26 8 -7 15 -20 15 -30 0 -24 -44 -101 -74 -129 -31 -29 -96 -52 -117 -41 -8 5 -49 10 -90 12 l-74 3 -6 -60 c-3 -35 -17 -82 -32 -112 -23 -45 -27 -65 -27 -138 0 -50 4 -85 10 -85 6 0 10 -13 10 -30 l0 -30 80 0 c44 0 88 -4 98 -9 9 -5 34 -17 54 -26 43 -18 85 -68 94 -112 8 -41 -26 -106 -76 -142 -22 -16 -92 -48 -155 -71 -108 -40 -115 -45 -115 -70 0 -52 -52 -236 -90 -317 -88 -190 -194 -307 -376 -416 -161 -97 -402 -144 -519 -102 -22 8 -53 15 -70 15 -42 0 -125 27 -156 49 -14 11 -42 24 -63 29 -21 6 -61 31 -89 55 -29 24 -62 47 -74 51 -25 8 -137 124 -182 190 -81 118 -144 294 -158 441 -5 63 -10 74 -44 112 -38 41 -39 45 -39 113 0 39 6 85 14 103 18 43 65 86 112 102 39 13 39 14 46 77 13 131 114 353 229 504 46 61 49 69 49 123 l0 58 -52 6 c-29 4 -102 9 -163 13 -60 3 -123 12 -140 19 -98 41 -116 50 -131 66 -10 11 -24 19 -31 19 -8 0 -26 9 -40 20 -14 11 -34 20 -44 20 -9 0 -31 11 -47 25 -17 14 -38 25 -49 25 -18 0 -61 26 -142 85 -19 14 -44 25 -56 25 -26 0 -78 25 -95 45 -7 8 -20 15 -29 15 -9 0 -27 9 -41 20 -14 11 -30 20 -37 20 -18 0 -150 69 -163 86 -7 8 -23 14 -35 14 -12 0 -33 8 -46 18 -13 10 -41 26 -61 35 -20 10 -40 22 -43 27 -3 6 -13 10 -22 10 -9 0 -40 20 -69 46 -98 83 -108 113 -318 944 -72 286 -74 296 -59 332 20 50 13 92 -32 208 -61 156 -80 244 -68 316 12 70 51 155 91 198 27 29 173 106 201 106 8 0 31 11 52 25 20 14 54 28 75 31 22 3 55 14 74 24 19 10 59 23 89 28 50 9 58 8 114 -22 45 -23 69 -44 93 -81 18 -27 60 -77 92 -110 69 -70 78 -94 85 -229 l6 -98 -45 -86 c-26 -50 -44 -100 -44 -119 0 -18 47 -173 104 -345 57 -172 107 -327 111 -344 3 -18 14 -39 23 -47 33 -29 147 -67 200 -67 62 0 59 -33 32 300 -17 225 -23 263 -71 460 -28 118 -58 223 -66 232 -10 11 -13 27 -9 45 11 46 28 83 38 83 13 0 7 64 -22 220 -32 178 -26 327 19 460 18 52 36 99 42 105 15 15 10 78 -9 110 -10 17 -81 153 -157 303 l-138 272 -34 0 c-19 0 -183 -25 -366 -57 -183 -31 -352 -58 -377 -61 -25 -2 -49 -8 -55 -12 -5 -4 -28 -13 -50 -20 -22 -7 -82 -30 -133 -51 -135 -56 -176 -62 -237 -34 -68 31 -101 81 -206 320 -55 127 -141 320 -189 431 -144 326 -150 354 -106 526 40 159 98 255 185 306 37 22 58 27 111 27 57 0 71 -4 120 -36 102 -66 161 -148 219 -304 17 -44 34 -69 64 -94 39 -31 46 -33 97 -28 64 7 522 74 755 111 88 14 271 44 408 65 146 24 263 37 285 34 60 -9 154 -58 199 -105 40 -42 210 -273 456 -623 66 -93 142 -200 169 -237 l50 -68 54 0 c47 0 76 11 241 91 103 49 226 108 273 130 l86 40 149 347 c81 191 191 448 243 572 53 124 102 235 111 247 9 12 35 32 58 45 33 18 43 29 48 58 8 45 98 275 141 361 38 76 97 133 152 146 45 11 39 13 182 -60z"></path><path id="pkvl0jqgS" d="M6030 8381 c-6 -16 -10 -44 -8 -62 3 -33 4 -34 48 -34 42 0 45 2 48 29 2 16 1 44 -3 63 -5 30 -9 33 -39 33 -28 0 -36 -5 -46 -29z"></path><path id="pO279qwV0" d="M1945 8208 c-13 -37 -25 -109 -25 -155 l0 -53 35 0 c28 0 36 4 39 23 19 89 26 133 26 162 0 33 -2 35 -35 35 -20 0 -38 -6 -40 -12z"></path><path id="pd2cSTLKc" d="M2260 7835 l0 -55 49 0 c54 0 61 8 61 65 0 28 -4 33 -31 39 -74 15 -79 12 -79 -49z"></path><path id="pUAER9PV0" d="M2525 7531 c-4 -42 -2 -92 5 -128 19 -97 16 -93 69 -93 l48 0 7 46 c9 69 7 102 -6 106 -6 2 -13 30 -16 61 -3 39 -9 57 -18 57 -8 0 -14 5 -14 10 0 6 -15 10 -34 10 l-34 0 -7 -69z"></path><path id="p1HZl07tqK" d="M4402 7518 c-7 -7 -12 -27 -12 -45 0 -25 10 -43 41 -74 34 -34 45 -40 77 -37 36 3 37 4 40 49 3 43 1 47 -23 53 -15 4 -25 13 -25 24 0 27 -20 42 -55 42 -17 0 -36 -5 -43 -12z"></path><path id="p2iQfVSr3" d="M5348 7159 c-12 -6 -18 -22 -18 -44 0 -33 2 -35 36 -35 54 0 74 15 74 55 0 34 -1 35 -37 35 -21 0 -46 -5 -55 -11z"></path><path id="pQYjsC2jb" d="M4748 6653 c-13 -3 -18 -15 -18 -44 l0 -40 68 3 67 3 0 40 0 40 -50 2 c-27 0 -58 -1 -67 -4z"></path><path id="pBRoQRSKK" d="M4158 6633 c-16 -2 -28 -8 -28 -12 0 -5 -10 -11 -21 -14 -20 -5 -21 -11 -16 -57 3 -28 9 -55 12 -60 13 -21 80 -10 124 20 24 17 48 30 53 30 4 0 8 15 8 33 0 58 -36 74 -132 60z"></path><path id="p12NQowwwd" d="M5500 5336 c0 -24 3 -64 6 -90 6 -44 8 -46 40 -46 l34 0 0 68 c0 99 -6 112 -46 112 -33 0 -34 -1 -34 -44z"></path><path id="pBkCakirK" d="M3884 5305 c-9 -37 2 -110 22 -140 12 -19 25 -25 50 -25 31 0 34 3 34 28 -1 15 -6 56 -13 92 l-12 65 -37 3 c-33 3 -38 0 -44 -23z"></path><path id="plDYtKkwG" d="M6744 5253 c-30 -25 -44 -56 -44 -95 0 -63 9 -78 46 -78 30 0 33 -3 36 -32 3 -31 6 -33 46 -36 l42 -3 0 39 c0 39 1 40 65 67 58 25 65 31 65 56 0 47 -9 59 -47 59 -20 0 -41 6 -47 14 -6 9 -38 17 -76 21 -54 5 -69 3 -86 -12z"></path><path id="phXPKkRNf" d="M6498 5041 c-10 -10 -18 -32 -18 -49 0 -35 13 -39 79 -26 30 6 32 9 29 48 -3 39 -5 41 -38 43 -23 2 -41 -4 -52 -16z"></path><path id="petd9NLjI" d="M3953 4963 c-7 -32 13 -353 28 -430 10 -51 11 -53 44 -53 32 0 34 2 39 43 3 23 5 56 6 72 0 17 2 53 6 81 3 32 0 72 -10 109 -8 32 -13 62 -10 67 3 5 2 38 -1 73 l-7 65 -44 0 c-39 0 -44 -3 -51 -27z"></path><path id="p10HwhEiyD" d="M3330 4931 c0 -68 14 -91 56 -91 l37 0 -7 56 c-8 71 -10 74 -52 74 -33 0 -34 -1 -34 -39z"></path><path id="pMgJryHf3" d="M5760 4886 c0 -8 -4 -16 -10 -18 -5 -1 -12 -29 -16 -60 l-7 -58 55 0 c30 0 59 5 66 12 15 15 16 74 2 83 -5 3 -10 17 -10 31 0 21 -4 24 -40 24 -28 0 -40 -4 -40 -14z"></path><path id="pYYoUQVdx" d="M3410 4670 c0 -62 17 -90 57 -90 33 0 33 1 33 46 0 64 -13 84 -55 84 -34 0 -35 -1 -35 -40z"></path><path id="pVBUMmEoj" d="M3610 4440 c0 -17 -5 -18 -50 -13 -46 5 -50 4 -50 -15 0 -11 -6 -22 -12 -24 -9 -3 -13 -28 -13 -79 l0 -74 41 -3 c38 -3 44 0 64 32 12 20 23 36 24 36 2 0 36 -14 77 -30 50 -21 87 -30 114 -28 38 3 40 5 43 41 2 21 -1 37 -7 37 -6 0 -11 14 -11 30 0 28 -2 30 -40 30 -29 0 -40 4 -40 15 0 8 -4 15 -9 15 -4 0 -20 11 -35 25 -35 32 -96 36 -96 5z"></path><path id="p1CXffoLZH" d="M2957 4083 c-10 -10 -8 -83 2 -83 5 0 11 -9 14 -20 4 -15 14 -20 41 -20 33 0 36 3 36 28 0 15 -5 44 -11 65 -9 33 -13 37 -43 37 -18 0 -36 -3 -39 -7z"></path><path id="plZ8fe6Lr" d="M3077 3883 c-4 -3 -7 -26 -7 -50 l0 -43 50 0 50 0 0 44 c0 31 -5 46 -16 50 -21 8 -69 8 -77 -1z"></path><path id="pFQwPVw04" d="M7180 3735 c0 -58 18 -85 57 -85 32 0 33 1 33 41 0 59 -14 79 -55 79 -33 0 -35 -2 -35 -35z"></path><path id="p12S7Z6mi4" d="M7276 3504 c-11 -28 -6 -71 9 -84 8 -7 15 -19 15 -26 0 -9 12 -14 35 -14 l35 0 0 51 c0 68 -13 89 -54 89 -22 0 -36 -6 -40 -16z"></path><path id="pHONHDlai" d="M7566 3368 c-21 -30 -21 -94 0 -102 30 -12 104 -6 139 11 30 14 35 22 35 50 0 18 -5 33 -11 33 -6 0 -17 7 -25 15 -10 10 -35 15 -69 15 -44 0 -57 -4 -69 -22z"></path><path id="pK2bYBzCr" d="M5910 3163 c-27 -11 -40 -31 -40 -62 0 -27 4 -31 35 -37 19 -3 55 -3 80 0 l45 7 0 43 c0 37 -4 45 -22 50 -28 7 -78 6 -98 -1z"></path><path id="piwsimbNk" d="M6770 2950 c0 -21 8 -55 18 -75 15 -31 21 -35 52 -33 34 3 35 4 38 48 4 59 -27 100 -76 100 -31 0 -32 -2 -32 -40z"></path><path id="p24OIFSZm" d="M7010 2917 c0 -20 12 -52 30 -80 26 -41 34 -47 65 -47 32 0 35 2 35 30 0 34 -28 99 -50 117 -8 7 -30 13 -47 13 -31 0 -33 -2 -33 -33z"></path><path id="pj0J1xYOj" d="M5456 2584 c-3 -9 -6 -26 -6 -39 0 -12 -7 -25 -15 -29 -17 -6 -21 -91 -6 -115 5 -8 32 -16 65 -19 80 -6 96 10 96 98 0 51 -4 69 -15 74 -8 3 -15 15 -15 26 0 17 -6 20 -49 20 -35 0 -51 -4 -55 -16z"></path><path id="pzwaYlz7b" d="M7812 2348 c-7 -7 -12 -27 -12 -45 l0 -33 54 0 c58 0 66 7 66 61 0 28 -2 29 -48 29 -26 0 -53 -5 -60 -12z"></path><path id="p1E9NZhOnT" d="M7688 2289 c-12 -6 -18 -22 -18 -44 0 -33 2 -35 36 -35 54 0 74 15 74 55 0 34 -1 35 -37 35 -21 0 -46 -5 -55 -11z"></path><path id="p1FPOBJpUH" d="M7270 2247 c0 -51 30 -87 72 -87 50 0 58 9 58 61 0 42 -3 49 -19 49 -11 0 -23 5 -26 10 -3 6 -24 10 -46 10 l-39 0 0 -43z"></path><path id="p3LsuPl4W" d="M4286 1854 c-9 -24 -7 -85 4 -125 16 -57 41 -79 89 -79 l41 0 0 50 c0 28 -4 50 -10 50 -5 0 -12 12 -16 28 -3 15 -12 42 -20 60 -13 27 -20 32 -48 32 -22 0 -36 -6 -40 -16z"></path><path id="p1Dla58qdE" d="M4482 1618 c-7 -7 -12 -29 -12 -49 0 -33 3 -37 31 -43 71 -14 79 -10 79 37 0 51 -13 67 -55 67 -17 0 -36 -5 -43 -12z"></path></g></g><g id="l3LFUorXiNGmrprs51KkKgv" fill="rgb(253,254,253)" style="transform: none;"><g style="transform: none;"><path id="p10OvuMPzH" d="M6438 9208 c-55 -15 -115 -72 -152 -147 -43 -86 -133 -316 -141 -361 -5 -29 -15 -40 -48 -58 -23 -13 -49 -33 -58 -45 -9 -12 -58 -123 -111 -247 -52 -124 -162 -381 -243 -572 l-149 -347 -86 -40 c-47 -22 -170 -81 -273 -130 -103 -50 -198 -91 -211 -91 -27 0 -39 15 -243 305 -246 350 -416 581 -456 623 -23 24 -69 56 -102 72 -99 47 -146 47 -435 1 -382 -62 -806 -127 -974 -151 -82 -11 -159 -23 -171 -26 -37 -9 -100 51 -126 121 -58 155 -117 238 -219 304 -53 35 -58 36 -150 36 -85 0 -100 -3 -141 -27 -26 -15 -59 -42 -74 -59 -74 -89 -135 -281 -135 -426 0 -102 11 -138 130 -407 48 -111 134 -304 189 -431 77 -174 110 -239 139 -268 91 -94 172 -97 367 -17 50 21 108 43 130 50 22 7 45 16 50 20 6 4 30 10 55 12 25 3 195 30 379 62 183 31 335 55 337 54 1 -2 48 -93 105 -203 56 -110 125 -246 155 -302 l53 -102 -19 -38 c-29 -61 -60 -178 -70 -261 -10 -93 2 -267 29 -399 17 -82 18 -97 6 -110 -33 -32 -47 -153 -21 -182 7 -9 37 -112 65 -230 44 -183 54 -241 66 -400 8 -102 17 -212 20 -243 6 -55 5 -58 -16 -58 -28 0 -148 47 -171 67 -9 8 -20 29 -23 47 -4 17 -54 172 -111 345 l-105 314 46 90 46 90 -7 131 c-3 72 -13 147 -20 166 -8 19 -39 60 -70 90 -30 30 -70 78 -88 105 -26 39 -47 57 -99 84 l-67 35 -76 -12 c-42 -7 -93 -21 -113 -31 -20 -11 -53 -22 -75 -25 -21 -3 -55 -17 -75 -31 -21 -14 -44 -25 -52 -25 -28 0 -174 -77 -201 -106 -66 -71 -104 -194 -95 -309 5 -71 50 -226 94 -324 22 -52 23 -57 8 -93 -8 -21 -15 -49 -15 -62 0 -22 120 -507 226 -911 55 -212 95 -297 168 -359 29 -26 60 -46 69 -46 9 0 19 -4 22 -10 3 -5 23 -17 43 -27 20 -9 48 -25 61 -35 13 -10 34 -18 46 -18 12 0 28 -6 35 -14 13 -17 145 -86 163 -86 7 0 23 -9 37 -20 14 -11 32 -20 41 -20 9 0 22 -7 29 -15 17 -20 69 -45 95 -45 12 0 37 -11 56 -25 81 -59 124 -85 142 -85 11 0 32 -11 49 -25 16 -14 38 -25 47 -25 10 0 30 -9 44 -20 14 -11 32 -20 40 -20 7 0 21 -8 31 -19 15 -16 33 -25 131 -66 17 -7 80 -16 140 -19 61 -4 134 -9 163 -13 49 -5 52 -7 52 -34 0 -18 -17 -51 -49 -93 -115 -151 -225 -397 -233 -519 -3 -47 -5 -49 -42 -62 -47 -16 -94 -59 -112 -102 -9 -20 -14 -70 -14 -133 l0 -100 39 -43 c34 -38 39 -49 44 -112 14 -147 77 -323 158 -441 45 -66 157 -182 182 -190 12 -4 45 -27 74 -51 28 -24 68 -49 89 -55 21 -5 49 -18 63 -29 31 -22 114 -49 156 -49 17 0 48 -7 70 -15 52 -19 212 -19 307 -1 93 18 194 56 272 103 182 109 288 226 376 416 38 81 90 265 90 317 0 25 7 30 115 70 63 23 133 55 155 71 114 83 104 262 -18 314 -20 9 -45 21 -54 26 -10 5 -54 9 -98 9 -71 0 -81 2 -79 18 3 34 -1 53 -11 47 -6 -4 -10 15 -10 49 0 40 8 71 30 118 20 42 30 79 30 110 0 45 10 65 24 50 4 -3 24 -7 44 -8 20 -1 51 -5 68 -9 41 -9 106 10 143 41 68 57 107 190 66 224 -8 7 -15 19 -15 26 0 8 -18 32 -40 54 -22 22 -40 42 -40 45 0 20 -61 91 -97 111 -49 30 -79 28 -196 -12 -39 -13 -78 -24 -88 -24 -10 0 -29 21 -47 53 -17 28 -48 69 -70 91 l-40 38 87 87 c73 72 108 119 218 296 160 257 273 446 273 457 0 15 14 9 160 -64 126 -64 145 -77 152 -103 16 -58 64 -130 114 -171 48 -38 57 -42 132 -48 44 -4 86 -13 94 -19 17 -14 212 -506 204 -514 -8 -8 -201 -96 -351 -160 -134 -57 -167 -78 -191 -125 -30 -59 -20 -100 107 -414 184 -454 209 -516 230 -555 19 -38 94 -109 114 -109 6 0 24 -13 39 -29 53 -55 94 -49 285 39 70 32 342 155 606 274 609 275 581 262 610 300 55 72 77 186 56 284 -19 91 -318 803 -366 871 -35 51 -81 76 -131 69 -21 -3 -128 -47 -237 -96 -108 -50 -204 -89 -211 -86 -8 3 -38 69 -67 147 -29 78 -67 182 -85 232 l-33 89 39 39 c21 22 46 59 54 85 22 62 20 157 -3 207 -10 23 -21 66 -25 96 -5 36 -17 71 -36 100 -17 24 -30 53 -30 64 0 11 -9 34 -20 50 -34 51 -38 59 -51 93 -22 59 -131 152 -179 152 -27 0 -34 14 -95 180 -66 181 -88 219 -150 256 -64 37 -130 30 -261 -27 -106 -46 -187 -113 -200 -163 -3 -14 -10 -26 -14 -26 -11 0 -158 78 -195 104 -78 54 -139 77 -221 83 -142 10 -224 -30 -328 -157 -28 -33 -55 -60 -60 -60 -6 0 -21 8 -33 18 -20 15 -26 41 -52 222 -16 113 -32 230 -36 260 -9 74 -22 114 -45 135 -16 15 -18 26 -13 81 4 40 2 68 -5 77 -9 11 35 48 216 184 299 225 525 403 589 466 63 61 96 122 201 372 44 105 131 312 194 460 153 360 248 597 248 618 0 15 6 16 43 11 23 -4 49 -13 58 -20 9 -9 39 -14 75 -14 33 0 65 -5 71 -11 16 -16 117 7 186 44 73 38 137 110 185 206 30 60 37 85 36 130 -1 65 -28 133 -70 175 -28 27 -186 136 -198 136 -3 0 -34 17 -68 38 -35 21 -70 41 -78 45 -27 13 -144 78 -170 95 -14 9 -41 24 -60 33 -19 9 -98 51 -175 94 -234 131 -386 205 -420 204 -16 -1 -46 -5 -67 -11z m115 -149 c12 -7 35 -23 50 -35 16 -13 38 -24 50 -24 12 0 42 -16 66 -35 25 -20 56 -38 70 -42 14 -3 37 -14 50 -25 13 -10 30 -18 38 -18 8 0 28 -11 45 -25 16 -14 38 -25 48 -25 9 0 23 -7 31 -16 17 -20 63 -44 87 -44 10 0 27 -9 36 -19 10 -10 32 -22 50 -25 18 -4 47 -21 66 -41 19 -19 38 -35 43 -35 4 0 23 -11 40 -24 18 -13 50 -32 72 -42 22 -10 54 -28 70 -41 17 -13 50 -38 75 -56 24 -18 51 -45 60 -60 14 -25 13 -30 -14 -82 -39 -76 -98 -139 -152 -165 -56 -27 -137 -24 -226 9 -32 11 -84 30 -115 42 -32 12 -80 23 -108 26 -47 5 -51 3 -67 -25 -26 -44 -23 -94 7 -122 14 -13 25 -28 25 -33 0 -5 -36 -94 -79 -196 -79 -185 -99 -232 -330 -786 -67 -159 -133 -309 -147 -332 -29 -50 -274 -250 -673 -548 l-253 -190 6 -45 c4 -25 11 -67 16 -95 5 -27 9 -69 9 -93 1 -33 9 -53 32 -82 28 -34 33 -52 45 -147 33 -254 97 -659 106 -670 6 -7 32 -13 58 -13 47 0 48 1 106 73 194 242 231 276 317 291 42 8 100 -8 132 -35 27 -23 123 -79 136 -79 5 0 28 -14 52 -31 23 -17 56 -37 72 -45 17 -8 48 -25 70 -39 30 -19 54 -25 98 -25 56 0 57 1 57 28 0 30 -28 125 -30 102 -1 -8 -6 -4 -11 9 -12 31 4 74 36 95 17 12 26 13 31 4 5 -7 3 -8 -6 -3 -8 5 -11 4 -7 -2 10 -15 48 -8 103 20 27 13 66 30 87 37 35 11 41 10 62 -10 14 -13 36 -58 51 -104 15 -45 47 -136 71 -202 l44 -121 56 -6 c66 -7 113 -45 146 -117 11 -25 28 -56 38 -69 11 -13 19 -36 19 -52 0 -15 11 -40 24 -56 36 -43 46 -68 46 -112 0 -22 9 -55 21 -75 15 -25 19 -44 14 -65 -7 -33 -62 -94 -105 -116 -24 -12 -30 -22 -30 -48 0 -39 223 -643 248 -670 33 -36 98 -19 322 85 200 93 205 95 225 77 33 -29 178 -329 267 -549 82 -202 83 -206 83 -292 0 -66 -4 -91 -15 -103 -26 -25 -1268 -595 -1298 -595 -5 0 -19 12 -33 26 -13 14 -40 34 -60 44 -34 18 -40 30 -179 377 -123 309 -168 411 -160 368 6 -29 -2 -26 -21 9 -11 21 -18 43 -16 49 3 7 10 0 16 -15 6 -16 13 -28 15 -28 5 0 -6 40 -18 71 -4 9 -1 20 6 26 7 5 140 65 295 134 280 123 283 124 283 154 0 17 -40 134 -90 260 -49 127 -109 282 -133 345 -40 106 -45 115 -71 118 -15 2 -41 -1 -57 -7 -85 -30 -211 59 -250 177 -12 37 -28 66 -38 68 -9 3 -83 38 -166 78 -205 100 -221 106 -258 106 -30 -1 -36 -7 -91 -103 -80 -139 -372 -612 -409 -665 -40 -56 -141 -133 -228 -174 l-70 -33 3 -39 c3 -39 4 -40 56 -52 30 -6 66 -20 80 -31 43 -32 89 -99 112 -162 14 -37 30 -63 45 -71 28 -15 99 -5 89 12 -5 7 -2 8 6 3 7 -4 15 -2 19 4 9 14 45 2 48 -15 2 -13 -49 -26 -70 -19 -11 5 -76 -14 -139 -40 -15 -6 -18 -2 -18 23 0 17 -4 33 -9 36 -5 4 -14 29 -20 58 -28 127 -77 157 -258 158 -109 0 -133 -3 -215 -30 -51 -16 -94 -27 -97 -24 -8 8 100 112 152 147 l48 32 -5 55 c-4 36 -21 84 -49 140 -40 81 -44 85 -77 88 -33 2 -45 -7 -176 -135 -78 -76 -187 -174 -242 -218 l-101 -80 0 -47 c-1 -26 13 -130 29 -231 17 -102 30 -188 30 -191 0 -3 17 -7 38 -7 l37 -1 -49 -12 c-59 -14 -127 -70 -159 -129 -17 -33 -22 -59 -22 -124 0 -91 16 -125 71 -152 39 -19 174 -27 203 -11 28 15 78 93 92 142 8 33 14 38 39 38 l30 0 0 -94 0 -95 35 -27 c29 -22 35 -33 35 -64 0 -21 6 -42 13 -48 17 -14 432 -20 580 -9 l107 9 0 99 0 99 -29 0 c-17 0 -31 6 -35 16 -9 24 12 54 39 54 14 0 25 5 25 11 0 6 14 44 30 86 17 43 30 93 30 118 0 40 -2 44 -32 54 -18 5 -44 11 -58 13 -24 3 -25 6 -21 58 1 30 4 55 5 56 0 1 12 4 26 7 24 6 25 4 25 -36 0 -38 4 -44 53 -81 28 -21 52 -47 52 -56 0 -10 -14 -51 -31 -91 l-32 -74 6 -149 c4 -100 10 -152 18 -157 7 -4 60 -10 118 -14 141 -8 165 -12 193 -35 18 -15 21 -22 12 -37 -10 -16 -198 -98 -285 -124 l-36 -11 -17 -102 c-28 -172 -78 -308 -155 -420 -47 -67 -174 -181 -257 -230 -132 -77 -185 -91 -356 -91 -104 0 -151 4 -160 12 -6 7 -25 13 -42 13 -48 0 -226 92 -305 158 -86 72 -140 136 -187 220 -21 37 -42 62 -52 62 -15 0 -15 2 -2 10 12 8 11 10 -6 10 -21 0 -32 18 -49 78 -8 28 3 64 17 56 6 -4 8 1 5 12 -9 31 -27 172 -27 215 0 32 -3 39 -20 39 -52 0 -77 78 -45 139 17 34 33 41 90 41 l44 0 6 58 c12 111 54 255 104 356 51 104 158 258 192 276 23 13 23 39 0 180 l-17 105 -195 6 c-207 6 -230 11 -316 59 -30 17 -152 81 -271 142 -119 61 -237 122 -262 136 -25 14 -92 50 -150 80 -58 29 -112 60 -121 68 -8 8 -22 14 -31 14 -8 0 -23 9 -33 20 -10 11 -25 20 -34 20 -9 0 -36 11 -59 25 -39 22 -70 26 -58 6 3 -4 -4 -7 -14 -8 -12 -1 -17 4 -15 15 1 9 8 16 15 14 8 -2 -3 16 -24 38 -64 71 -62 65 -226 714 l-111 439 26 27 c34 36 32 79 -6 146 -17 30 -50 113 -74 185 -40 118 -43 135 -35 179 22 117 77 182 170 201 30 7 66 22 80 35 28 26 71 44 102 44 12 0 45 12 74 26 40 20 62 25 88 20 39 -8 56 -24 95 -96 21 -38 45 -64 83 -89 60 -41 65 -54 67 -169 1 -63 -3 -81 -30 -134 -17 -34 -42 -79 -55 -100 -30 -47 -30 -71 1 -131 13 -27 71 -194 129 -370 98 -300 108 -325 143 -359 43 -41 98 -68 141 -68 16 0 41 -9 55 -20 14 -11 30 -20 36 -20 7 0 25 -10 42 -22 21 -16 48 -23 94 -26 l65 -4 -1 78 c-1 81 -15 198 -18 154 l-2 -25 -10 25 c-9 22 -38 311 -39 382 0 15 7 33 15 42 22 22 18 66 -20 206 -32 121 -43 142 -26 51 l9 -45 -18 24 c-30 39 -36 121 -9 104 12 -7 12 -8 -15 96 -26 95 -23 131 12 172 17 20 15 34 -23 213 -38 181 -39 318 -1 432 14 44 37 106 51 137 33 74 32 103 -7 168 -18 30 -100 190 -183 356 l-150 302 -55 -4 c-30 -2 -203 -29 -385 -60 -181 -32 -358 -57 -393 -57 -39 1 -72 -5 -85 -14 -32 -20 -314 -125 -339 -125 -37 0 -73 56 -157 246 -46 104 -124 279 -174 389 -138 308 -160 370 -153 428 8 58 51 197 76 247 40 79 131 130 169 96 10 -9 23 -16 29 -16 22 0 113 -102 141 -159 16 -31 39 -89 51 -128 23 -76 38 -93 146 -161 60 -38 107 -42 140 -11 17 16 63 26 255 55 270 40 929 147 1037 168 53 10 84 11 109 4 57 -16 126 -63 164 -115 123 -164 598 -828 636 -889 l28 -45 85 3 c85 4 86 5 315 115 409 196 403 193 409 219 4 14 57 141 118 282 281 651 287 666 277 679 -7 8 -6 21 5 40 13 24 15 25 16 8 0 -11 19 17 41 63 40 82 40 82 79 82 38 0 39 1 59 55 12 31 21 67 21 81 0 49 130 365 167 406 18 21 73 24 106 7z m-3543 -5038 c5 -19 5 -29 -1 -26 -5 4 -9 12 -9 20 0 7 -5 15 -12 17 -6 2 -8 10 -4 17 10 16 15 11 26 -28z m4230 -330 c-1 -10 -6 -7 -15 9 -19 33 -18 50 0 26 8 -11 15 -27 15 -35z m99 -260 c0 -25 -1 -25 -9 -5 -5 12 -13 25 -19 28 -6 4 -7 14 -4 23 6 14 8 14 20 -3 7 -10 13 -29 12 -43z m-1154 -301 c8 -16 15 -38 15 -50 0 -11 6 -20 14 -20 17 0 76 -66 76 -85 0 -17 -36 -39 -50 -30 -6 4 -20 25 -31 47 -21 40 -21 40 -70 36 l-49 -5 0 53 c0 36 -4 54 -12 55 -14 1 59 26 79 28 7 1 19 -12 28 -29z m-662 -567 c-7 -2 -13 -13 -13 -24 0 -11 6 -19 13 -18 31 4 37 -2 37 -39 0 -51 -27 -77 -69 -67 -21 4 -33 14 -37 30 -7 27 3 48 17 40 5 -4 9 2 9 12 0 11 6 25 13 32 10 11 10 13 0 7 -7 -4 -13 -2 -13 3 0 6 5 11 11 11 5 0 7 5 4 10 -3 6 4 10 17 9 13 0 17 -3 11 -6z m-708 -33 c-3 -5 -12 -10 -20 -10 -8 0 -17 5 -20 10 -4 6 5 10 20 10 15 0 24 -4 20 -10z m3069 -214 c-3 -7 -16 -13 -30 -13 -20 0 -22 2 -13 13 6 8 20 14 30 14 11 0 16 -5 13 -14z m-148 -61 c-11 -8 -25 -15 -30 -15 -6 0 -2 7 8 15 11 8 25 15 30 15 6 0 2 -7 -8 -15z"></path><path id="pQTcM5Zwf" d="M6456 9004 c-10 -27 -7 -72 7 -81 8 -5 2 -9 -17 -13 -26 -4 -34 -15 -68 -95 -29 -70 -37 -101 -35 -140 2 -42 6 -52 27 -62 24 -12 24 -13 -16 -13 -39 0 -41 -1 -57 -47 -25 -71 -23 -98 11 -111 49 -18 57 -22 87 -41 17 -11 68 -40 115 -66 47 -25 92 -50 100 -55 8 -5 41 -25 73 -44 48 -30 68 -36 112 -36 44 0 57 4 69 22 22 31 21 97 -1 114 -16 12 -10 13 40 14 47 0 57 3 58 18 0 11 6 5 16 -15 9 -18 24 -33 34 -33 9 0 22 -6 28 -14 6 -7 33 -21 59 -30 26 -10 54 -21 64 -26 31 -17 136 -40 179 -40 51 1 112 21 140 46 13 12 19 30 19 60 0 39 -3 44 -42 68 l-43 25 48 1 47 0 0 35 c0 33 -5 39 -61 73 -34 20 -76 49 -93 63 -17 15 -51 36 -76 48 -25 11 -67 34 -95 51 -27 16 -72 40 -100 53 -27 14 -59 34 -69 46 -11 11 -29 21 -40 21 -12 0 -36 9 -55 21 -46 28 -188 103 -294 156 -94 46 -160 57 -171 27z"></path><path id="pgC6O9jQi" d="M6147 8362 c-29 -72 -35 -140 -15 -160 9 -9 4 -12 -23 -12 l-35 0 -58 -137 c-32 -76 -116 -271 -188 -433 -71 -162 -133 -304 -138 -316 -5 -13 -38 -33 -91 -56 -46 -20 -194 -89 -329 -153 -135 -65 -288 -137 -342 -160 -53 -24 -232 -107 -397 -186 -289 -136 -301 -143 -285 -161 10 -10 13 -18 7 -18 -5 0 -30 -13 -54 -30 -24 -16 -51 -27 -60 -25 -31 10 -138 -173 -184 -313 -14 -44 -16 -80 -13 -210 3 -91 12 -196 23 -249 l18 -93 65 0 c85 0 193 20 199 38 3 7 0 52 -6 100 -19 142 -18 249 5 312 18 53 19 54 22 23 2 -18 7 -33 12 -33 40 0 223 -176 260 -250 38 -77 56 -90 119 -90 31 0 101 7 156 15 55 7 139 17 187 21 l87 7 3 29 c3 26 10 33 51 48 56 21 175 104 555 387 424 315 620 471 647 511 13 20 44 89 68 152 43 112 96 240 260 625 142 337 197 478 197 509 0 29 -8 36 -121 101 -132 77 -169 97 -370 203 -94 50 -147 72 -171 72 -34 0 -36 -2 -61 -68z m-751 -1237 c-11 -8 -25 -15 -30 -15 -6 0 -2 7 8 15 11 8 25 15 30 15 6 0 2 -7 -8 -15z m-568 -510 c-2 -5 -18 -10 -35 -10 -35 0 -45 11 -15 17 29 7 52 3 50 -7z"></path><path id="p3ywbL0G0" d="M2039 8233 c-16 -42 -38 -171 -39 -228 l0 -50 -42 0 -43 0 -3 -47 c-3 -54 -17 -20 218 -542 84 -187 163 -357 177 -378 23 -37 26 -39 71 -36 40 3 47 6 50 26 3 18 10 22 39 22 20 0 81 17 135 38 96 36 98 38 98 70 0 18 -10 51 -21 74 -12 23 -32 69 -44 102 -16 43 -28 60 -39 58 -9 -2 -18 6 -21 20 -22 98 -24 119 -15 174 17 100 13 171 -10 194 -11 11 -26 20 -33 20 -7 0 -31 18 -52 40 -37 37 -44 41 -87 39 -27 -2 -48 -6 -48 -11 0 -4 -9 -8 -20 -8 -14 0 -20 7 -20 23 0 18 5 23 23 23 18 -1 23 5 25 31 2 18 -4 42 -12 55 -8 13 -29 61 -45 108 -17 46 -42 101 -56 122 -33 49 -95 88 -140 88 -29 0 -37 -5 -46 -27z"></path><path id="p1x598weR" d="M3780 7979 c-154 -31 -884 -149 -922 -149 -4 0 -9 -12 -9 -27 -2 -24 -2 -25 -6 -5 -5 27 -18 27 -133 7 -47 -8 -87 -15 -89 -15 -2 0 -1 -55 3 -122 10 -181 52 -368 118 -520 20 -46 22 -48 61 -48 22 0 126 16 231 36 105 20 279 50 386 68 181 31 195 35 200 56 4 17 13 4 39 -61 19 -46 100 -214 180 -374 l146 -290 44 -3 c41 -3 47 0 94 48 56 57 118 90 475 255 l212 98 0 34 c0 28 -21 64 -108 186 -60 84 -123 174 -141 200 -21 31 -38 46 -47 43 -9 -3 -31 11 -55 35 -32 32 -38 43 -29 55 17 20 29 8 24 -22 -3 -18 -1 -23 7 -18 8 5 9 3 4 -6 -5 -8 -3 -11 6 -8 8 3 23 -2 33 -11 17 -13 16 -11 -3 17 -12 17 -27 32 -33 32 -6 0 -9 3 -5 6 7 7 -3 21 -206 301 -158 218 -165 223 -293 222 -49 0 -132 -9 -184 -20z"></path><path id="p4GVxxM4B" d="M4244 5938 c4 -51 9 -123 13 -160 l6 -68 97 0 c54 0 112 3 129 6 29 6 31 9 31 53 0 62 -48 140 -128 208 -56 47 -67 53 -108 53 l-47 0 7 -92z"></path><path id="p1ELP9G0nG" d="M5277 5895 c-60 -41 -67 -49 -67 -79 0 -55 22 -66 134 -66 l98 0 -7 88 c-4 48 -9 90 -12 95 -2 4 -21 7 -41 7 -27 0 -55 -12 -105 -45z"></path><path id="p19irUHHaq" d="M3101 5846 c-25 -9 -38 -22 -47 -47 -7 -19 -13 -26 -13 -16 -1 14 -10 17 -47 17 -56 0 -80 -12 -88 -45 -6 -23 -11 -25 -65 -25 -66 0 -72 -5 -90 -70 -7 -25 -19 -54 -27 -65 -22 -31 -17 -65 30 -220 29 -95 52 -155 70 -175 14 -17 26 -36 26 -41 0 -5 42 -9 93 -9 71 0 114 7 190 28 111 32 116 38 201 191 45 81 46 86 45 165 -1 44 -4 95 -8 111 -6 27 -10 30 -46 30 -37 0 -40 -2 -50 -39 -15 -53 -23 -31 -35 94 -5 53 -12 104 -16 113 -7 21 -71 22 -123 3z"></path><path id="pSvuVazws" d="M5070 5683 c-370 -21 -731 -70 -1041 -139 l-69 -16 0 -52 c0 -28 21 -128 46 -226 62 -236 60 -222 85 -585 30 -455 28 -438 64 -448 17 -5 60 -25 96 -43 37 -19 74 -34 83 -34 9 0 16 -5 16 -11 0 -8 -13 -10 -38 -6 -58 10 -394 135 -417 156 -11 10 -37 21 -57 23 -36 4 -52 -5 -25 -15 8 -3 8 -7 -4 -11 -16 -7 -189 60 -188 72 3 21 -3 32 -16 32 -8 0 -15 -6 -15 -12 0 -9 -4 -8 -10 2 -5 8 -10 10 -10 5 0 -6 5 -16 11 -22 8 -8 3 -22 -16 -52 -29 -44 -42 -50 -51 -26 -10 24 6 87 19 82 9 -3 12 12 11 52 -1 43 -21 111 -83 286 -45 127 -80 217 -77 202 4 -35 -10 -22 -20 17 -5 22 -4 27 6 21 14 -9 14 -9 -33 139 l-32 98 -55 -5 c-48 -5 -316 -77 -393 -106 -23 -9 -27 -16 -27 -51 0 -41 229 -965 254 -1022 18 -44 81 -102 136 -128 25 -12 72 -36 105 -55 33 -19 67 -34 76 -34 9 -1 22 -7 28 -15 16 -19 227 -126 248 -126 8 0 31 -13 50 -30 18 -16 41 -30 50 -30 9 0 24 -6 32 -13 9 -7 34 -19 56 -26 22 -8 53 -24 68 -37 17 -15 42 -24 61 -24 23 0 41 -9 62 -31 16 -17 58 -44 94 -61 36 -16 80 -37 99 -46 30 -15 65 -17 249 -14 l214 2 127 114 c69 63 188 175 265 250 76 75 140 136 142 136 9 0 106 -157 135 -217 21 -44 36 -63 49 -63 10 0 22 -4 25 -10 14 -22 96 -10 171 24 l74 35 0 40 0 41 48 0 c56 0 16 -57 318 448 195 325 206 346 202 387 -3 38 -1 42 12 30 8 -7 38 -23 65 -35 28 -12 85 -40 129 -61 43 -21 82 -39 87 -39 4 0 25 -11 45 -25 28 -19 50 -25 90 -25 l53 0 11 43 c16 62 79 235 106 289 29 57 31 109 6 131 -10 10 -22 17 -26 17 -4 0 -62 33 -128 73 -65 39 -129 78 -141 85 -12 7 -32 11 -45 8 -17 -2 -20 0 -13 7 8 8 -31 36 -132 96 l-142 86 -72 0 c-87 0 -85 2 -227 -180 -130 -165 -165 -213 -144 -197 22 17 33 -1 11 -19 -9 -8 -18 -13 -20 -11 -21 15 -83 -70 -83 -115 0 -18 12 -97 26 -176 23 -122 26 -158 20 -258 -5 -100 -38 -314 -49 -326 -3 -2 -5 101 -5 229 -1 221 -3 245 -42 483 -22 137 -56 349 -74 470 -19 121 -35 202 -36 180 l-2 -40 -9 40 c-4 22 -8 51 -8 65 0 23 1 23 9 5 5 -11 9 -17 9 -14 3 24 -51 344 -60 355 -9 11 -48 14 -188 12 -97 -1 -201 -3 -231 -5z m-1600 -1057 c-1 -19 -2 -19 -15 4 -20 35 -19 62 0 36 8 -11 15 -29 15 -40z"></path><path id="pwolGooLJ" d="M6943 5208 c-30 -15 -35 -34 -10 -36 15 -1 18 1 9 7 -11 7 -10 10 3 14 9 4 13 3 10 -3 -3 -6 0 -10 7 -11 7 0 -15 -13 -49 -29 -35 -16 -72 -27 -83 -25 -24 5 -27 -19 -5 -41 17 -18 20 -44 5 -44 -6 0 -5 -11 3 -27 8 -16 31 -75 52 -132 51 -136 71 -161 136 -161 35 0 63 8 99 28 42 23 50 31 50 57 0 17 -31 116 -69 220 l-70 190 -33 2 c-18 1 -43 -3 -55 -9z"></path><path id="pf2Uz9vwD" d="M7118 4717 l-108 -51 0 -62 c0 -34 3 -69 6 -78 8 -21 63 -21 111 -1 44 18 194 58 199 52 2 -2 -37 -16 -86 -30 -50 -15 -115 -37 -145 -48 -54 -20 -55 -21 -55 -59 0 -53 42 -79 131 -81 35 -1 52 -4 38 -6 -25 -4 -27 -8 -33 -79 -4 -41 -4 -79 -1 -84 14 -23 218 -5 303 26 l42 16 0 63 c0 53 -4 68 -25 93 -19 23 -25 41 -25 81 0 41 -5 56 -29 84 -16 18 -33 46 -36 63 -7 30 -27 82 -48 124 -11 22 -20 25 -72 27 -53 1 -72 -4 -167 -50z"></path><path id="p5Z8UuE0o" d="M6863 4603 c-65 -156 -91 -271 -64 -287 4 -3 21 -49 37 -102 42 -140 84 -173 207 -162 37 3 38 4 77 93 48 107 52 156 15 173 -14 7 -44 12 -65 12 -37 0 -40 2 -40 28 0 15 -11 45 -25 67 -13 22 -25 54 -25 71 0 17 -4 44 -9 60 -5 16 -12 41 -15 57 -6 23 -11 27 -42 27 -31 0 -37 -4 -51 -37z"></path><path id="p19fujaT1s" d="M4032 4590 c0 -19 2 -27 5 -17 2 9 2 25 0 35 -3 9 -5 1 -5 -18z"></path><path id="pgAnt9MHk" d="M7147 4144 c-15 -15 -6 -64 27 -145 18 -46 80 -208 136 -359 56 -151 109 -281 118 -287 24 -19 144 -16 187 4 56 27 64 -3 -145 533 -50 129 -94 238 -98 241 -10 10 -216 21 -225 13z"></path><path id="pBFIIiFOZ" d="M8113 3553 c-10 -3 -13 -41 -13 -142 l0 -137 -33 4 c-33 4 -95 -21 -426 -172 -80 -36 -227 -103 -327 -148 -178 -81 -183 -84 -184 -113 l0 -30 -18 34 c-9 19 -23 37 -30 39 -7 2 -3 -12 10 -35 13 -23 16 -33 7 -26 -8 6 -25 31 -38 55 -13 24 -18 37 -10 31 28 -27 27 -11 -4 47 -29 55 -35 60 -66 60 -18 0 -51 -5 -72 -12 -33 -9 -39 -15 -39 -40 0 -23 259 -700 291 -759 8 -15 21 -19 63 -19 l53 0 7 88 c5 66 3 97 -8 130 -11 30 -12 41 -3 35 7 -4 50 -10 97 -13 l85 -5 -62 -25 c-61 -24 -63 -26 -63 -61 0 -57 11 -99 26 -99 8 0 14 -9 14 -20 0 -17 7 -20 44 -20 35 0 129 39 497 205 617 279 559 249 559 285 0 28 3 30 36 30 l37 0 -6 88 c-4 74 -14 112 -67 257 -86 234 -161 380 -238 463 -25 26 -38 32 -69 31 -21 0 -44 -3 -50 -6z m207 -763 c10 0 24 -8 31 -17 11 -15 11 -16 -1 -5 -8 6 -33 12 -57 12 -43 0 -43 0 -43 36 l0 36 26 -31 c14 -17 34 -31 44 -31z"></path><path id="pJnzc6dd9" d="M4437 2423 c-13 -12 -8 -153 6 -158 6 -2 69 -6 140 -10 l127 -6 0 38 c-1 56 -40 96 -119 122 -63 20 -141 28 -154 14z"></path><path id="pDtZrpnr7" d="M4280 2185 l0 -55 48 -1 c26 0 70 -4 97 -9 l50 -7 -54 -2 -54 -1 5 -137 c6 -157 32 -258 91 -351 30 -47 35 -51 47 -37 14 17 32 8 36 -20 2 -12 -2 -13 -17 -5 -33 18 -21 -7 19 -38 59 -46 81 -54 170 -63 96 -10 186 1 259 31 37 16 43 16 28 4 -28 -23 -116 -61 -170 -75 -45 -11 -46 -13 -43 -48 4 -52 37 -65 168 -65 131 0 208 22 318 91 l52 33 0 -40 c0 -34 4 -42 26 -50 48 -19 99 -12 142 20 47 34 112 113 131 159 11 26 19 31 45 31 27 0 36 6 53 38 51 92 113 325 113 426 0 34 4 46 15 46 8 0 65 20 127 44 l113 44 3 37 3 38 -263 -9 c-354 -12 -693 -9 -1048 10 -162 9 -343 16 -402 16 l-108 0 0 -55z m398 -86 c-12 -7 -18 -22 -18 -48 0 -63 -16 -75 -89 -66 -67 8 -66 7 -76 78 l-6 47 103 0 c75 -1 98 -3 86 -11z m220 -6 c-36 -4 -38 -6 -38 -38 0 -25 8 -40 31 -59 26 -22 28 -26 11 -26 -41 0 -52 11 -52 52 0 22 -5 48 -10 59 -10 18 -7 19 42 17 43 -1 46 -2 16 -5z m265 -10 l-142 -4 -4 -37 -4 -37 -1 43 -2 42 148 -2 147 -2 -142 -3z m420 -10 c-29 -2 -77 -2 -105 0 -29 2 -6 3 52 3 58 0 81 -1 53 -3z m195 -10 c-21 -2 -57 -2 -80 0 -24 2 -7 4 37 4 44 0 63 -2 43 -4z"></path></g></g><g id="l2qQt4HHwZq8h2niejkK19z" fill="rgb(1,117,52)" style="transform: none;"><g style="transform: none;"><path id="pG4EtrxEm" d="M6440 9098 c-14 -8 -37 -36 -52 -63 -44 -80 -128 -300 -138 -357 -4 -29 -16 -72 -25 -95 -16 -40 -20 -43 -54 -43 -45 0 -53 -13 -131 -200 -29 -69 -81 -192 -117 -275 -198 -456 -283 -657 -289 -679 -6 -26 -4 -25 -409 -219 -186 -89 -241 -111 -285 -114 l-55 -5 -28 46 c-38 61 -512 724 -636 889 -42 57 -113 103 -180 119 -42 9 -72 7 -222 -20 -208 -38 -653 -109 -971 -157 -195 -29 -234 -37 -254 -56 l-23 -22 -53 34 c-110 69 -125 86 -148 162 -12 39 -35 97 -51 128 -29 59 -120 159 -143 159 -8 0 -20 7 -27 16 -11 13 -26 15 -70 11 -71 -6 -108 -28 -143 -81 -39 -60 -87 -218 -93 -306 -5 -69 -2 -83 30 -165 19 -49 65 -157 102 -240 37 -82 112 -251 167 -375 55 -124 109 -240 120 -258 27 -44 71 -66 116 -57 44 8 319 111 349 130 13 9 33 12 50 9 16 -3 190 22 388 55 198 33 374 63 390 65 l30 5 150 -301 c83 -166 164 -325 182 -355 l32 -54 -24 -55 c-41 -93 -74 -208 -81 -285 -8 -90 8 -248 39 -386 19 -83 21 -105 11 -115 -7 -7 -19 -34 -25 -60 -11 -40 -10 -58 5 -125 26 -109 35 -131 46 -113 11 18 15 8 29 -70 8 -48 7 -52 -5 -35 -19 26 -18 14 11 -93 14 -51 25 -108 26 -125 0 -18 3 -26 6 -19 2 6 11 12 18 12 15 0 26 -78 12 -83 -5 -1 1 -44 13 -95 18 -77 20 -98 10 -122 -6 -15 -11 -45 -10 -67 1 -21 1 -49 0 -63 -1 -23 -2 -24 -11 -5 -5 13 -7 -20 -3 -89 l7 -109 -39 6 c-21 4 -51 16 -66 27 -15 11 -32 20 -39 20 -6 0 -22 9 -36 20 -14 11 -39 20 -55 20 -43 0 -98 27 -141 68 -35 34 -45 59 -143 359 -58 176 -115 341 -127 365 -22 44 -22 45 -4 74 10 16 34 59 53 96 33 65 34 72 33 170 -2 148 -5 157 -67 199 -38 25 -62 51 -83 89 -39 71 -52 84 -97 99 -43 15 -103 3 -160 -30 -18 -10 -44 -19 -57 -19 -34 0 -76 -18 -105 -44 -14 -13 -50 -28 -81 -35 -102 -22 -159 -101 -175 -242 -6 -50 -1 -73 36 -185 23 -71 58 -158 77 -192 l35 -64 -26 -27 c-17 -17 -26 -38 -26 -59 0 -17 54 -245 120 -506 66 -261 120 -477 120 -481 0 -4 7 -5 15 -1 8 3 15 4 15 3 0 -1 4 -17 9 -35 6 -20 6 -30 0 -27 -5 4 -9 13 -9 21 0 8 -5 14 -11 14 -22 0 28 -114 71 -164 29 -33 54 -48 47 -28 -2 8 6 12 24 12 8 0 8 -4 -1 -15 -10 -12 -6 -18 22 -35 18 -11 45 -23 60 -27 15 -3 35 -14 44 -24 9 -11 24 -19 32 -19 9 0 23 -6 31 -14 9 -8 63 -39 121 -68 58 -30 125 -66 150 -80 25 -14 143 -75 262 -136 119 -61 241 -125 271 -142 86 -48 109 -53 316 -59 l195 -6 16 -104 17 -104 -41 -42 c-135 -138 -247 -390 -271 -608 l-6 -57 -44 0 c-24 0 -51 -3 -60 -6 -28 -11 -45 -60 -45 -129 0 -70 20 -105 60 -105 16 0 20 -7 20 -37 0 -20 5 -76 11 -125 11 -82 21 -106 32 -75 6 16 30 -41 30 -70 0 -13 3 -23 8 -23 5 0 6 -7 3 -15 -5 -11 -2 -13 10 -9 12 4 16 0 16 -15 0 -13 -6 -21 -17 -21 -15 0 -16 2 -3 10 12 8 11 10 -7 10 -20 0 -22 -3 -12 -27 39 -104 123 -215 230 -305 79 -66 257 -158 305 -158 17 0 36 -6 42 -13 10 -9 62 -12 190 -12 204 0 248 10 386 91 83 49 210 163 257 230 77 113 127 248 155 422 10 56 22 102 27 102 15 0 290 110 304 122 7 6 13 30 13 54 0 64 -23 76 -173 86 -176 12 -163 4 -171 94 -11 140 -8 169 29 258 52 125 49 134 -49 210 -21 15 -34 32 -29 36 4 5 42 18 83 30 41 12 104 35 140 52 59 27 66 28 75 12 52 -88 76 -99 131 -65 30 18 31 21 24 65 -7 47 -50 106 -77 106 -7 0 -13 9 -13 20 0 12 -7 34 -15 50 -12 24 -22 30 -48 30 -41 0 -197 -40 -197 -52 0 -4 6 -8 13 -8 8 0 14 -6 14 -14 0 -18 -49 -28 -79 -17 -21 8 -21 8 5 15 15 3 27 11 27 17 0 6 -5 7 -12 2 -7 -4 -22 -6 -33 -5 -44 6 -64 25 -85 83 -23 63 -69 130 -112 162 -14 11 -50 25 -79 31 -29 7 -54 17 -56 22 -2 5 28 24 66 42 87 41 188 118 228 174 34 48 318 509 408 663 33 55 60 101 61 103 2 4 59 -22 229 -104 83 -40 157 -75 166 -78 10 -2 26 -32 38 -69 31 -91 103 -160 186 -177 51 -11 86 -10 134 2 9 2 27 -33 57 -112 115 -302 157 -402 164 -390 10 16 30 -19 29 -52 l0 -23 -9 22 c-5 13 -12 23 -15 23 -4 0 19 -66 49 -140 5 -12 -57 -43 -276 -139 -156 -69 -292 -133 -303 -143 -24 -22 -39 22 176 -511 148 -366 154 -379 188 -397 20 -10 47 -30 60 -44 41 -44 79 -36 294 60 106 47 229 102 275 121 45 20 82 40 82 44 0 5 -8 5 -17 2 -16 -6 -16 -5 -4 10 15 19 57 24 45 6 -9 -15 26 -4 96 31 30 15 180 85 332 155 152 70 283 134 290 142 9 11 13 52 13 132 l0 116 -85 210 c-93 231 -227 504 -268 548 -19 20 -33 26 -48 23 -12 -3 -116 -49 -230 -102 -115 -53 -218 -98 -229 -101 -12 -3 -27 3 -38 14 -11 13 -247 621 -247 639 0 0 20 14 44 29 63 40 89 79 94 142 3 41 0 60 -17 88 -12 21 -21 53 -21 76 0 44 -10 69 -46 112 -13 16 -24 41 -24 56 0 16 -8 39 -19 52 -10 13 -27 44 -38 69 -33 72 -80 110 -146 117 l-56 6 -32 86 c-17 47 -49 137 -70 200 -49 145 -66 164 -136 159 -54 -5 -208 -74 -205 -92 1 -5 18 -11 38 -13 26 -3 34 0 28 8 -4 8 -3 9 5 5 6 -4 9 -12 6 -17 -4 -5 1 -9 10 -9 9 0 13 -4 10 -10 -4 -6 1 -7 11 -3 11 4 15 3 11 -5 -6 -9 33 -9 74 1 8 2 153 -374 146 -378 -1 -1 -23 -13 -49 -28 -26 -15 -55 -27 -66 -27 -33 0 -66 51 -107 161 -21 57 -47 121 -57 141 -10 21 -18 46 -18 58 0 11 -6 19 -12 17 -8 -1 -12 7 -10 23 2 23 1 23 -12 -5 -12 -24 -15 -26 -15 -10 -2 19 -2 19 -12 2 -6 -9 -14 -15 -20 -12 -5 4 -9 0 -10 -7 0 -7 -4 -4 -9 7 -16 41 -23 -13 -7 -60 l16 -45 -27 0 c-15 0 -45 11 -67 25 -22 14 -53 31 -70 39 -16 8 -49 28 -72 45 -24 17 -47 31 -52 31 -13 0 -110 57 -136 79 -54 47 -184 52 -264 11 -37 -18 -106 -93 -245 -267 -57 -71 -83 -86 -104 -60 -9 11 -73 416 -106 670 -12 94 -18 113 -43 145 -25 32 -31 49 -36 117 -4 44 -11 95 -16 112 l-9 31 251 188 c398 298 642 497 671 547 14 23 79 171 144 327 217 517 299 713 361 858 34 78 61 151 61 162 0 11 -14 35 -31 54 -30 35 -30 35 -13 65 22 38 25 37 232 -41 37 -14 89 -23 149 -26 80 -4 98 -1 137 18 53 25 110 86 150 160 50 91 36 153 -45 208 -22 15 -55 39 -72 53 -18 14 -50 33 -72 43 -22 10 -54 29 -72 42 -17 13 -36 24 -40 24 -5 0 -24 16 -43 35 -19 20 -48 37 -66 41 -18 3 -40 15 -50 25 -9 10 -26 19 -36 19 -24 0 -70 24 -87 44 -8 9 -22 16 -31 16 -10 0 -32 11 -48 25 -17 14 -37 25 -45 25 -8 0 -25 8 -38 18 -13 11 -36 22 -50 25 -14 4 -45 22 -70 42 -24 19 -54 35 -66 35 -12 0 -34 11 -50 24 -42 34 -64 44 -119 51 -32 4 -58 1 -74 -7z m157 -151 c106 -53 248 -128 294 -156 19 -12 43 -21 55 -21 11 0 29 -10 40 -21 10 -12 42 -32 69 -46 28 -13 73 -37 100 -53 28 -17 70 -40 95 -51 25 -12 56 -31 70 -44 14 -12 53 -39 87 -59 77 -46 84 -56 38 -56 -28 0 -45 9 -79 40 -27 25 -53 40 -69 40 -15 0 -43 17 -75 45 -35 32 -59 45 -79 45 -19 0 -38 9 -53 25 -13 14 -32 25 -42 25 -26 0 -105 46 -148 85 -19 18 -51 35 -71 39 -22 4 -48 20 -69 41 -26 27 -42 35 -70 35 -28 0 -44 8 -69 34 -23 23 -45 35 -72 39 -46 6 -70 23 -62 43 7 20 13 19 110 -29z m-65 -97 c32 -16 63 -30 69 -30 5 0 38 -18 71 -40 34 -22 71 -40 82 -40 11 0 29 -8 40 -19 12 -10 66 -43 121 -72 55 -29 112 -60 127 -68 14 -9 52 -31 85 -50 216 -124 343 -204 343 -216 0 -20 -47 -53 -93 -66 -41 -11 -109 -1 -172 26 -16 7 -51 21 -77 30 -26 10 -53 24 -59 31 -6 8 -19 14 -28 14 -10 0 -26 18 -39 45 -12 25 -29 48 -37 51 -23 9 -43 -13 -37 -41 4 -23 2 -25 -35 -25 -29 0 -48 8 -73 30 -19 16 -38 29 -42 30 -4 0 -54 28 -110 63 -57 34 -141 80 -188 102 -119 55 -118 55 -97 114 31 87 67 161 78 161 6 0 38 -13 71 -30z m-63 -329 c55 -26 145 -77 201 -112 56 -35 109 -68 118 -74 63 -37 68 -44 52 -73 -23 -40 -57 -39 -126 3 -32 20 -66 40 -74 45 -8 5 -53 30 -100 55 -47 26 -98 55 -115 66 -30 19 -38 23 -87 41 l-26 10 16 44 c9 24 22 44 29 44 7 0 58 -22 112 -49z m-120 -193 c206 -109 240 -127 368 -202 65 -37 119 -69 120 -70 4 -3 -93 -242 -194 -481 -164 -385 -217 -513 -260 -625 -24 -63 -55 -132 -68 -152 -27 -40 -223 -195 -650 -513 -394 -293 -503 -368 -573 -394 -62 -22 -75 -34 -47 -45 34 -13 11 -23 -62 -29 -43 -4 -137 -14 -210 -24 -153 -19 -154 -19 -200 72 -40 79 -222 255 -264 255 -5 0 -9 5 -9 10 0 12 135 237 157 262 8 9 91 58 184 110 93 51 169 96 169 100 0 3 -11 5 -25 3 -14 -1 -25 2 -25 6 0 5 6 9 13 10 6 0 21 2 32 4 10 2 24 0 30 -5 6 -5 76 31 175 88 325 190 684 412 677 418 -2 2 -94 -38 -204 -90 -201 -94 -362 -179 -768 -406 -121 -68 -243 -136 -270 -151 -45 -25 -58 -42 -127 -156 -125 -208 -135 -245 -118 -446 6 -72 12 -141 13 -151 2 -16 -8 -22 -58 -32 -33 -7 -79 -13 -101 -14 l-41 0 -18 93 c-10 50 -20 151 -22 222 -5 126 -4 133 26 214 34 94 75 171 132 248 45 60 45 61 22 59 -11 0 -18 6 -18 16 0 9 -3 20 -7 24 -9 8 -1 24 12 24 5 0 7 -6 4 -14 -3 -7 1 -16 9 -19 12 -4 14 1 10 24 -3 21 0 29 11 29 8 0 18 -4 21 -10 10 -16 28 -12 21 5 -7 20 3 19 26 -1 17 -16 32 -10 245 91 126 60 311 146 413 193 102 46 289 134 415 194 127 61 268 126 314 146 53 23 86 43 91 56 5 12 67 154 138 316 72 162 156 357 188 433 32 75 62 137 66 137 5 0 71 -32 147 -71 124 -63 144 -70 188 -67 l48 3 -73 45 c-40 25 -93 60 -118 78 -24 17 -53 32 -64 32 -21 0 -90 56 -90 73 0 16 52 147 58 147 3 0 66 -32 141 -72z m-268 -11 c-20 -20 -34 6 -19 38 l12 27 9 -27 c6 -18 6 -30 -2 -38z m-3951 -112 c51 -32 82 -80 120 -184 17 -46 36 -93 42 -105 7 -12 11 -31 9 -43 -2 -17 3 -23 18 -23 25 0 27 -13 5 -35 -35 -34 11 -62 48 -28 18 16 21 14 61 -25 24 -23 48 -42 55 -42 7 0 21 -9 32 -20 16 -16 20 -34 21 -92 1 -84 16 -140 20 -73 1 24 3 31 6 18 5 -25 18 -30 26 -10 4 7 6 6 6 -5 1 -9 -4 -18 -10 -20 -8 -3 -7 -14 5 -35 18 -36 23 -80 6 -53 -7 11 -10 8 -10 -15 l1 -30 19 24 c15 17 20 19 20 8 0 -9 -5 -19 -11 -23 -6 -3 -9 -17 -6 -30 2 -13 1 -22 -2 -19 -4 2 -13 0 -20 -4 -14 -9 13 -100 55 -184 14 -27 24 -50 22 -51 -14 -9 -200 -77 -202 -75 -9 10 -85 169 -191 399 -64 140 -146 316 -181 391 -40 86 -64 149 -64 170 1 72 39 239 55 239 3 0 23 -11 45 -25z m-154 -94 c-14 -75 -26 -102 -26 -60 0 21 4 39 25 119 2 8 4 17 4 19 1 2 3 2 6 -1 3 -2 -2 -37 -9 -77z m2083 -162 c25 -14 74 -73 161 -192 68 -95 142 -196 163 -225 28 -39 42 -51 50 -43 16 16 41 -7 26 -25 -13 -16 -2 -37 17 -30 7 3 16 1 19 -5 4 -5 10 -7 15 -4 4 3 7 -3 5 -12 -2 -10 -4 -20 -4 -22 -1 -3 -6 0 -13 7 -7 7 -16 12 -21 12 -8 0 5 -19 196 -288 60 -84 107 -155 104 -158 -2 -3 -110 -53 -238 -113 -350 -162 -390 -183 -447 -242 -30 -31 -56 -49 -65 -46 -15 6 -306 583 -354 702 -21 52 -34 71 -50 73 -17 3 -22 -4 -30 -35 l-9 -37 -84 -13 c-47 -7 -224 -38 -393 -69 -170 -31 -311 -54 -313 -51 -15 15 -69 167 -95 265 -27 104 -58 346 -47 358 3 2 39 10 81 18 l76 13 6 -46 c10 -74 35 -202 51 -258 22 -76 37 -68 30 15 -13 156 -18 302 -9 302 39 0 766 117 923 149 130 26 203 26 249 0z m-1990 -239 c176 -387 283 -616 307 -658 42 -72 5 -105 -40 -34 -21 33 -287 617 -369 808 -19 45 -27 79 -23 90 7 17 9 17 26 -6 11 -14 55 -104 99 -200z m3327 -585 c-11 -8 -25 -15 -30 -15 -6 0 -2 7 8 15 11 8 25 15 30 15 6 0 2 -7 -8 -15z m-1034 -1178 c60 -51 128 -145 128 -178 0 -20 -39 -29 -130 -29 l-68 0 -6 88 c-4 48 -9 106 -12 130 -7 57 10 55 88 -11z m1032 -49 c3 -7 7 -37 10 -65 l5 -53 -68 0 c-54 0 -71 4 -85 19 -17 19 -15 21 51 65 73 49 82 53 87 34z m-2200 -85 c4 -9 11 -62 16 -117 7 -71 15 -108 29 -126 31 -42 46 -37 62 20 16 59 31 68 40 25 18 -85 11 -130 -37 -216 -85 -153 -90 -159 -201 -191 -97 -27 -223 -38 -223 -19 0 5 -12 24 -26 41 -17 20 -41 80 -70 173 -37 124 -41 145 -29 163 7 11 19 40 26 65 16 56 26 69 55 69 16 0 22 -4 18 -14 -5 -13 22 -36 43 -36 4 0 16 21 27 48 21 52 40 72 69 72 18 0 19 -5 13 -49 -5 -37 -3 -51 9 -61 22 -18 31 -6 58 75 21 61 27 70 58 81 47 17 56 17 63 -3z m2265 -167 c6 -7 22 -87 36 -177 60 -409 99 -662 136 -889 l39 -245 0 -355 c0 -403 10 -361 -97 -406 -53 -23 -68 -26 -84 -16 -10 7 -25 12 -33 12 -8 0 -28 28 -45 63 -55 114 -141 237 -166 237 -6 0 -79 -66 -161 -146 -82 -80 -206 -197 -275 -259 l-126 -114 -185 -3 c-156 -3 -190 0 -219 14 -19 9 -63 30 -99 46 -36 17 -78 44 -94 61 -21 22 -39 31 -62 31 -19 0 -44 9 -61 24 -15 13 -46 29 -68 37 -22 7 -47 19 -56 26 -8 7 -23 13 -32 13 -9 0 -32 14 -50 30 -19 17 -42 30 -50 30 -21 0 -232 107 -248 126 -6 8 -19 14 -28 15 -9 0 -43 15 -76 34 -33 19 -80 43 -105 55 -55 26 -118 84 -136 128 -21 47 -256 983 -250 997 5 15 403 134 410 123 10 -13 238 -711 242 -740 4 -20 12 -39 18 -41 9 -4 12 3 9 21 -3 19 -2 23 5 14 5 -7 15 -12 22 -10 7 2 15 -4 17 -12 4 -13 3 -13 -7 0 -10 13 -11 13 -7 0 2 -8 16 -16 30 -18 21 -3 26 0 21 13 -4 9 1 21 11 29 11 8 15 18 10 25 -6 10 -3 11 14 2 11 -7 21 -16 21 -21 0 -5 9 -12 21 -15 16 -5 19 -12 15 -31 -6 -23 -5 -24 14 -14 18 10 24 7 21 -12 -2 -13 11 -9 29 7 16 15 18 14 18 -12 0 -15 5 -29 11 -31 6 -2 9 -8 5 -13 -3 -5 3 -9 12 -9 10 0 27 -9 39 -20 24 -23 351 -144 436 -162 53 -11 60 -10 79 7 23 21 23 54 0 65 -8 3 -49 22 -90 42 -41 20 -88 40 -105 44 -36 11 -34 -6 -64 449 -25 363 -23 349 -85 585 -25 96 -46 185 -46 196 0 19 10 24 69 38 251 56 531 99 796 120 246 21 272 22 446 24 114 2 149 -1 158 -12z m89 -376 l0 -45 -9 40 c-4 22 -8 51 -8 65 0 23 1 23 9 5 5 -11 8 -40 8 -65z m833 -215 c90 -52 171 -100 179 -105 110 -68 250 -150 258 -150 5 0 17 -9 26 -19 16 -18 16 -21 -7 -68 -28 -55 -91 -227 -107 -290 -13 -52 -37 -56 -94 -18 -20 14 -41 25 -46 25 -4 0 -39 15 -77 34 -37 19 -98 48 -134 64 -48 22 -77 44 -108 81 -42 50 -62 59 -89 42 -10 -6 -5 -24 24 -83 l37 -75 -206 -344 c-275 -459 -268 -449 -288 -449 -45 0 -44 20 11 280 12 55 23 158 26 245 6 136 4 164 -20 294 l-27 145 25 35 c59 82 270 354 312 400 75 83 93 80 305 -44z m453 19 c9 -24 7 -36 -6 -32 -13 5 -22 48 -9 48 5 0 12 -7 15 -16z m-274 -63 c0 -5 -11 -11 -25 -14 -25 -4 -25 -4 -8 13 18 17 33 17 33 1z m-3178 -111 c6 -37 -8 -27 -18 14 -4 19 -3 27 3 23 6 -4 13 -20 15 -37z m2428 -47 c0 -9 -7 -25 -17 -35 -17 -19 -5 -26 14 -7 7 7 13 7 17 1 8 -13 -12 -26 -40 -28 -17 -1 -20 4 -16 25 3 14 11 30 19 34 7 5 11 12 8 18 -4 5 -1 9 4 9 6 0 11 -8 11 -17z m1517 -143 c18 -38 43 -93 43 -97 0 -1 -18 -3 -41 -3 -45 0 -174 -31 -234 -55 -45 -19 -55 -11 -55 46 0 35 0 36 108 86 120 58 159 63 179 23z m-3857 -84 c-1 -19 -2 -19 -15 4 -20 35 -19 62 0 36 8 -11 15 -29 15 -40z m3466 -85 c15 -59 15 -63 -2 -76 -18 -13 -18 -14 -1 -20 10 -4 29 -27 44 -52 l26 -44 -27 -48 c-23 -42 -24 -50 -10 -55 28 -11 39 -6 57 24 10 17 27 30 37 30 22 0 70 -20 70 -30 0 -8 -76 -179 -83 -187 -3 -3 -26 -2 -51 1 -65 10 -96 45 -124 142 -13 43 -30 94 -39 112 -15 31 -14 37 12 110 40 110 65 166 71 160 2 -3 12 -33 20 -67z m475 -19 c20 -22 29 -44 29 -67 0 -34 -1 -35 -42 -35 -24 -1 -72 -7 -108 -15 -93 -20 -147 -19 -186 6 -19 11 -34 24 -34 29 0 10 77 40 201 77 70 21 93 32 97 47 4 15 7 17 10 6 3 -8 18 -30 33 -48z m55 -165 c15 -17 24 -42 24 -62 0 -29 -5 -35 -40 -49 -44 -18 -210 -42 -231 -34 -10 4 -13 20 -11 56 l4 50 41 6 c23 4 72 14 110 22 62 14 67 18 68 42 0 16 3 21 6 12 3 -8 17 -28 29 -43z m-124 -256 c4 -3 59 -141 123 -306 63 -165 124 -321 134 -346 l19 -46 -34 -17 c-41 -19 -104 -21 -126 -3 -9 6 -65 145 -126 307 -61 162 -122 323 -135 357 -14 34 -23 64 -21 66 6 6 158 -4 166 -12z m-102 -410 c-1 -10 -6 -7 -15 9 -19 33 -18 50 0 26 8 -11 15 -27 15 -35z m-1958 -57 c21 -38 41 -87 45 -109 9 -40 9 -40 -47 -81 -60 -44 -185 -177 -185 -197 0 -25 75 -18 185 17 94 31 123 36 202 36 149 -1 203 -38 229 -158 6 -29 15 -54 20 -58 20 -12 7 -32 -40 -61 -27 -17 -66 -36 -87 -43 -22 -7 -43 -16 -47 -20 -15 -14 21 -30 90 -40 113 -16 117 -20 86 -86 -17 -35 -17 -36 2 -50 10 -8 29 -14 40 -14 35 0 85 -21 85 -35 0 -8 -13 -47 -30 -88 -16 -42 -30 -80 -30 -86 0 -6 -11 -11 -25 -11 -28 0 -45 -25 -45 -69 0 -47 9 -61 41 -61 l29 0 0 -69 0 -69 -102 -8 c-143 -11 -508 -6 -525 8 -7 6 -13 27 -13 48 0 31 -6 42 -35 65 l-36 27 3 91 3 92 -62 3 -62 3 -11 -40 c-15 -56 -70 -134 -103 -145 -38 -14 -134 7 -163 35 -71 66 -48 190 51 277 36 32 57 41 103 48 44 7 58 13 60 28 5 26 -24 46 -64 46 -36 0 -29 -27 -75 267 l-23 142 29 23 c110 86 225 188 329 293 67 66 126 121 131 120 6 -1 27 -32 47 -71z m2920 -136 c77 -83 153 -230 237 -462 84 -231 93 -322 25 -271 -10 8 -26 15 -35 15 -9 0 -28 9 -42 20 -14 11 -32 20 -39 20 -26 0 -58 46 -87 126 -16 43 -52 137 -80 208 l-51 129 0 118 c0 114 3 125 33 128 4 1 22 -14 39 -31z m-198 -150 c13 -110 16 -119 37 -107 16 8 21 4 33 -26 31 -74 146 -385 146 -395 0 -11 -47 -34 -472 -226 -275 -124 -301 -134 -355 -133 -32 0 -67 4 -78 8 -14 6 -38 55 -83 172 -76 196 -80 209 -58 209 22 0 20 12 -14 80 -16 33 -30 65 -30 73 0 7 60 39 133 72 264 117 397 184 397 198 0 10 16 17 48 21 26 4 99 31 162 60 63 30 118 54 121 55 4 1 10 -27 13 -61z m-336 3 c8 -4 14 -12 15 -17 1 -5 8 -8 17 -6 8 1 2 -5 -15 -15 -16 -9 -43 -17 -59 -18 -27 -2 -28 -1 -11 12 22 15 12 17 -16 3 -23 -13 -24 -2 -3 28 15 22 48 28 72 13z m-1608 -280 c0 -29 -2 -31 -139 -75 -150 -49 -173 -53 -189 -33 -16 19 28 42 173 94 147 51 155 52 155 14z m944 -118 c10 -21 31 -57 47 -81 26 -39 81 -176 174 -437 27 -76 31 -100 27 -152 -4 -58 -6 -63 -28 -63 -12 0 -26 6 -30 12 -5 7 -72 175 -150 373 l-142 360 31 12 c48 17 52 16 71 -24z m-184 -19 c0 -9 5 -12 12 -8 7 4 8 3 4 -4 -4 -7 -3 -12 3 -12 5 0 8 -8 6 -17 -2 -10 -4 -20 -4 -23 -2 -8 -41 69 -41 81 0 5 5 7 10 4 6 -3 10 -13 10 -21z m257 -43 c0 -4 7 -22 17 -41 27 -50 -3 -23 -33 30 -22 39 -22 41 -3 29 11 -7 20 -15 19 -18z m1241 -150 c9 -6 42 -19 72 -29 l55 -20 -55 -26 c-183 -87 -965 -436 -976 -436 -18 0 -41 38 -49 80 l-5 35 202 88 c112 49 309 140 438 202 230 110 279 127 318 106z m-3756 -363 c52 -17 75 -30 94 -56 15 -18 24 -35 23 -36 -2 -2 -51 0 -109 3 l-105 6 -3 39 c-4 44 3 66 19 66 7 0 43 -10 81 -22z m3174 -123 c-11 -8 -25 -15 -30 -15 -6 0 -2 7 8 15 11 8 25 15 30 15 6 0 2 -7 -8 -15z m-411 -5 c3 -5 15 -10 26 -10 22 0 27 -35 5 -43 -15 -6 -56 32 -56 51 0 15 16 16 25 2z m-2565 -56 c344 -19 749 -22 1080 -10 145 5 231 4 225 -1 -13 -12 -204 -87 -219 -86 -6 1 -182 6 -391 12 -362 12 -949 37 -1082 48 -59 4 -63 7 -63 29 0 23 2 24 78 24 43 0 210 -7 372 -16z m-295 -161 c4 -27 8 -53 10 -59 7 -23 188 -33 202 -11 4 6 10 32 13 57 l5 45 50 3 c59 4 75 -11 75 -74 0 -28 5 -44 15 -48 18 -7 194 -10 201 -4 2 3 7 28 11 57 l6 51 121 0 c125 0 628 -20 635 -26 6 -6 -22 -150 -46 -234 -13 -47 -38 -113 -54 -147 -28 -59 -32 -63 -63 -63 -28 0 -36 -5 -47 -31 -35 -87 -153 -195 -199 -184 -43 11 -43 21 2 76 48 60 103 173 92 190 -4 7 -43 -24 -98 -79 -138 -136 -234 -190 -379 -212 -64 -9 -160 2 -184 21 -11 10 0 17 66 39 130 44 206 101 252 192 33 65 8 77 -51 24 -49 -44 -115 -82 -186 -107 -69 -24 -205 -27 -257 -5 -41 17 -137 85 -137 97 0 4 -14 30 -30 56 -49 78 -81 193 -87 316 l-6 107 31 0 c29 0 31 -2 37 -47z m515 -3 c0 -39 -20 -39 -62 0 l-33 29 48 1 c46 0 47 -1 47 -30z m-444 -461 c19 -22 19 -22 -2 -11 -12 6 -24 8 -28 5 -3 -3 -6 -2 -6 4 0 8 10 23 15 23 1 0 10 -10 21 -21z"></path><path id="ptv62txzR" d="M4841 2638 c-17 -48 -40 -68 -79 -68 -34 0 -34 -1 -28 -32 11 -59 64 -76 111 -35 27 24 62 125 52 152 -11 27 -44 18 -56 -17z"></path><path id="pd2Y8uPnI" d="M5466 2551 c-16 -17 -23 -72 -8 -70 19 3 33 -2 27 -10 -6 -10 11 -24 33 -27 17 -3 15 15 -3 22 -8 4 -12 11 -8 17 3 6 1 7 -6 3 -17 -11 -25 22 -10 41 10 12 10 15 2 9 -7 -4 -13 -3 -13 3 0 5 5 11 12 13 8 3 9 6 1 11 -6 4 -18 -2 -27 -12z"></path><path id="p1HnHdaKnq" d="M5510 2541 c0 -13 7 -18 25 -18 21 0 23 2 14 18 -5 11 -16 19 -24 19 -8 0 -15 -8 -15 -19z"></path><path id="pVcgy7HC4" d="M8227 3283 c-15 -15 -5 -68 29 -154 37 -92 53 -109 105 -109 24 0 20 20 -23 130 -42 107 -86 159 -111 133z"></path><path id="p243dPm6T" d="M5642 5968 c-14 -14 -14 -60 -2 -98 7 -19 9 -12 8 31 -1 30 2 61 6 67 9 15 3 15 -12 0z"></path><path id="pxhf0hOsH" d="M3760 5583 c-16 -35 -26 -148 -13 -156 6 -4 9 19 9 56 0 40 6 73 17 95 10 17 14 32 9 32 -5 0 -15 -12 -22 -27z"></path><path id="p1171ZLHLU" d="M6424 2986 c1 -35 4 -62 9 -59 10 6 9 111 -1 117 -5 3 -8 -23 -8 -58z"></path><path id="pGWIM8rN7" d="M6056 2871 c-9 -13 17 -72 30 -67 6 2 16 0 21 -5 5 -5 19 -6 31 -2 20 8 19 9 -14 46 -33 36 -57 46 -68 28z"></path><path id="prj10iGJI" d="M6027 2473 c-4 -3 -7 -21 -7 -40 l0 -33 98 2 97 2 -87 3 -87 4 1 30 c1 31 -5 43 -15 32z"></path></g></g><g id="l6OHkNbqa7FZKnxyUld3oMo" fill="rgb(130,201,165)" style="transform: none;"><g style="transform: none;"><path id="pWdSj7zR9" d="M5673 4160 c0 -47 2 -66 4 -42 2 23 2 61 0 85 -2 23 -4 4 -4 -43z"></path><path id="pUuB5VUem" d="M7765 3349 c-132 -61 -339 -156 -460 -211 -121 -55 -223 -103 -226 -106 -10 -10 72 -182 85 -182 10 0 254 109 646 289 69 32 151 68 184 82 l58 24 -6 45 c-4 25 -9 73 -13 108 -3 35 -11 62 -17 62 -6 -1 -119 -50 -251 -111z"></path></g></g></svg>